<svg xmlns="http://www.w3.org/2000/svg" viewBox="0 0 13.55 17.65"><g data-name="Layer 2"><path d="M6.77 17.65a1.12 1.12 0 0 1-.92-.47l-4.2-5.93A9.84 9.84 0 0 1 .53 9.41a6.64 6.64 0 0 1-.4-1.29A6.75 6.75 0 0 1 0 6.79 6.77 6.77 0 0 1 6.74 0h.06a6.68 6.68 0 0 1 2.56.51A6.77 6.77 0 0 1 13 9.4a9.51 9.51 0 0 1-1.12 1.85l-.19.26-4 5.67a1.11 1.11 0 0 1-.92.48zm0-1.3l3.94-5.55.19-.26a8.46 8.46 0 0 0 1-1.61 5.46 5.46 0 0 0 .33-1.05 5.61 5.61 0 0 0 .11-1.1 5.55 5.55 0 0 0-9.49-3.93 5.51 5.51 0 0 0-1.63 3.92 5.58 5.58 0 0 0 .11 1.1 5.48 5.48 0 0 0 .33 1.05 8.49 8.49 0 0 0 1 1.61l.19.26 3.94 5.55zm0-5.38A4.21 4.21 0 1 1 11 6.77 4.21 4.21 0 0 1 6.77 11zm0-7.19a3 3 0 1 0 3 3 3 3 0 0 0-3-3z" fill="#ed1651" fill-rule="evenodd" data-name="Layer 1"/></g></svg>